<svg id="Layer_1" data-name="Layer 1" xmlns="http://www.w3.org/2000/svg" xmlns:xlink="http://www.w3.org/1999/xlink" viewBox="0 0 403.38 417.72"><defs><style>.cls-1{fill:#4d4d4d;}.cls-2{fill:url(#radial-gradient);}</style><radialGradient id="radial-gradient" cx="305.87" cy="202.24" r="118.63" gradientUnits="userSpaceOnUse"><stop offset="0" stop-color="#e2ce13"/><stop offset="0.5" stop-color="#998f2f"/><stop offset="1" stop-color="#4d4d4d"/></radialGradient></defs><title>atos-citygrid-vert</title><path class="cls-1" d="M104.57,501.3a.61.61,0,0,1-.36-.36.62.62,0,0,1,0-.51l1.55-3.75h0l4.53-10.92.06-.12,0,0,0-.06.06,0,0,0a.58.58,0,0,1,.23-.1H111a.58.58,0,0,1,.25.1l0,0,.06,0,0,.06,0,0,.06.12L116,496.67h0l1.55,3.75a.62.62,0,0,1,0,.51.61.61,0,0,1-.36.36.65.65,0,0,1-.87-.36L115,497.61h-8.16l-1.39,3.33a.61.61,0,0,1-.62.41h-.13Zm9.87-5-3.53-8.52-3.53,8.52Z" transform="translate(-103.11 -83.64)"/><path class="cls-1" d="M136.37,501.12h0l-10.23-13.18v12.77a.67.67,0,0,1-1.34,0V486a.67.67,0,0,1,1.2-.41l10.24,13.18V486a.67.67,0,0,1,.66-.67.66.66,0,0,1,.48.2.64.64,0,0,1,.19.47v14.77a.22.22,0,0,1,0,.07.19.19,0,0,1,0,.06l0,.07,0,.06a.13.13,0,0,1,0,.06l0,.06,0,.06,0,0,0,0,0,0,0,0-.07,0,0,0-.08,0h-.35l-.09,0,0,0-.08,0,0,0,0,0Z" transform="translate(-103.11 -83.64)"/><path class="cls-1" d="M156.29,500.69a.67.67,0,0,1-1.34,0V486a.67.67,0,0,1,1.34,0Z" transform="translate(-103.11 -83.64)"/><path class="cls-1" d="M176.35,501.12h0L166.1,487.92v12.77a.67.67,0,0,1-1.34,0V486a.67.67,0,0,1,1.2-.41l10.24,13.18V486a.67.67,0,0,1,.66-.67.66.66,0,0,1,.48.2.64.64,0,0,1,.19.47v14.77a.22.22,0,0,1,0,.07.19.19,0,0,1,0,.06l0,.07,0,.06a.13.13,0,0,1,0,.06l0,.06,0,.06,0,0,0,0,0,0,0,0-.07,0,0,0-.08,0h-.35l-.09,0,0,0-.08,0,0,0,0,0Z" transform="translate(-103.11 -83.64)"/><path class="cls-1" d="M186.59,501.36a.64.64,0,0,1-.47-.19.66.66,0,0,1-.2-.48V486a.66.66,0,0,1,.2-.48.62.62,0,0,1,.47-.2h3.72a8,8,0,0,1,0,16l-3.71,0Zm.67-1.35,3,0a6.65,6.65,0,1,0,0-13.3h-3.05Z" transform="translate(-103.11 -83.64)"/><path class="cls-1" d="M213.31,501.36A8,8,0,1,1,219,499,7.72,7.72,0,0,1,213.31,501.36Zm0-14.7a6.72,6.72,0,1,0,4.72,2A6.41,6.41,0,0,0,213.31,486.66Z" transform="translate(-103.11 -83.64)"/><path class="cls-1" d="M230.56,500.69a.68.68,0,0,1-.19.48.66.66,0,0,1-.47.19.65.65,0,0,1-.67-.67V486a.6.6,0,0,1,.49-.64.61.61,0,0,1,.75.3l6.66,11,6.66-11a.61.61,0,0,1,.75-.3.6.6,0,0,1,.49.64v14.66a.66.66,0,0,1-.2.48.64.64,0,0,1-.47.19.66.66,0,0,1-.47-.19.68.68,0,0,1-.19-.48V488.42l-6,9.92h0l0,.06,0,0,0,0-.06,0h-.06l-.07,0-.06,0h-.38l-.06,0-.07,0h-.06l-.06,0,0,0,0,0,0-.06h0l-6-9.92Z" transform="translate(-103.11 -83.64)"/><path class="cls-1" d="M255,500.69a.67.67,0,0,1-1.34,0V486a.67.67,0,0,1,1.34,0Z" transform="translate(-103.11 -83.64)"/><path class="cls-1" d="M267.18,486.66h-4.42a.67.67,0,0,1-.48-.19.67.67,0,0,1,0-.94.65.65,0,0,1,.48-.2h10.16a.66.66,0,0,1,.47,1.14.64.64,0,0,1-.47.19h-4.42v14a.65.65,0,0,1-.67.67.66.66,0,0,1-.47-.19.67.67,0,0,1-.19-.48Z" transform="translate(-103.11 -83.64)"/><path class="cls-1" d="M279.65,501.3a.61.61,0,0,1-.36-.36.62.62,0,0,1,0-.51l1.55-3.75h0l4.53-10.92.06-.12,0,0,0-.06.06,0,0,0a.58.58,0,0,1,.23-.1h.26a.58.58,0,0,1,.25.1l0,0,.06,0,0,.06,0,0,.06.12,4.53,10.92h0l1.55,3.75a.62.62,0,0,1,0,.51.61.61,0,0,1-.36.36.65.65,0,0,1-.87-.36l-1.39-3.33h-8.16l-1.39,3.33a.61.61,0,0,1-.61.41h-.13Zm9.87-5L286,487.75l-3.53,8.52Z" transform="translate(-103.11 -83.64)"/><path class="cls-1" d="M300.41,501.36a.69.69,0,0,1-.67-.67V486a.64.64,0,0,1,.19-.47.66.66,0,0,1,.48-.2l5.15,0a4.79,4.79,0,0,1,3.34,1.24,4,4,0,0,1,1.36,3.05,4.13,4.13,0,0,1-.56,2.09,4.36,4.36,0,0,1-1.49,1.55,4.35,4.35,0,0,1,1.71,1.54,4.11,4.11,0,0,1-.75,5.28,4.7,4.7,0,0,1-3.33,1.29Zm.67-8.65h4.48a3.39,3.39,0,0,0,2.38-.91,2.86,2.86,0,0,0,1-2.18,2.7,2.7,0,0,0-1-2.1,3.51,3.51,0,0,0-2.39-.85l-4.48,0Zm0,7.31h4.77a3.48,3.48,0,0,0,2.39-.88,2.77,2.77,0,0,0,1-2.14,2.68,2.68,0,0,0-1-2.1,3.46,3.46,0,0,0-2.38-.86h-4.8Z" transform="translate(-103.11 -83.64)"/><path class="cls-1" d="M319.44,485.36a.65.65,0,0,1,.47.2.64.64,0,0,1,.19.47v14h7.26a.67.67,0,0,1,.67.66.66.66,0,0,1-.2.48.64.64,0,0,1-.47.19h-7.92a.65.65,0,0,1-.67-.67V486a.64.64,0,0,1,.19-.47A.66.66,0,0,1,319.44,485.36Z" transform="translate(-103.11 -83.64)"/><path class="cls-1" d="M335.57,501.36a.69.69,0,0,1-.67-.67V486a.62.62,0,0,1,.2-.47.59.59,0,0,1,.47-.2l8.88,0a.62.62,0,0,1,.47.2.64.64,0,0,1,.2.47.66.66,0,0,1-.2.48.64.64,0,0,1-.47.19l-8.21,0v6h6.14a.67.67,0,0,1,0,1.34h-6.14v6h8.21a.67.67,0,0,1,0,1.34Z" transform="translate(-103.11 -83.64)"/><path class="cls-1" d="M362.94,500.69a.67.67,0,0,1-1.34,0V486a.67.67,0,0,1,1.34,0Z" transform="translate(-103.11 -83.64)"/><path class="cls-1" d="M383,501.12h0l-10.23-13.18v12.77a.67.67,0,0,1-1.34,0V486a.67.67,0,0,1,1.2-.41l10.24,13.18V486a.67.67,0,0,1,.66-.67.66.66,0,0,1,.48.2.64.64,0,0,1,.19.47v14.77a3.39,3.39,0,0,1,0,.12l0,.07,0,.06,0,.06,0,.06,0,.06,0,0,0,0,0,0,0,0-.07,0,0,0-.08,0h-.35l-.09,0,0,0-.08,0,0,0,0,0Z" transform="translate(-103.11 -83.64)"/><path class="cls-1" d="M393.92,500.69a.67.67,0,0,1-1.34,0V486a.67.67,0,0,1,1.34,0Z" transform="translate(-103.11 -83.64)"/><path class="cls-1" d="M406.06,486.66h-4.42a.67.67,0,0,1-.48-.19.67.67,0,0,1,0-.94.65.65,0,0,1,.48-.2h10.16a.66.66,0,0,1,.47,1.14.64.64,0,0,1-.47.19h-4.42v14a.65.65,0,0,1-.67.67.66.66,0,0,1-.47-.19.67.67,0,0,1-.19-.48Z" transform="translate(-103.11 -83.64)"/><path class="cls-1" d="M420.48,500.69a.67.67,0,0,1-1.34,0V486a.67.67,0,0,1,1.34,0Z" transform="translate(-103.11 -83.64)"/><path class="cls-1" d="M428.56,501.3a.61.61,0,0,1-.36-.36.62.62,0,0,1,0-.51l1.55-3.75h0l4.53-10.92.06-.12,0,0,0-.06.06,0,0,0a.58.58,0,0,1,.23-.1H435a.58.58,0,0,1,.25.1l0,0,.06,0,0,.06,0,0,.06.12L440,496.67h0l1.55,3.75a.62.62,0,0,1,0,.51.61.61,0,0,1-.36.36.65.65,0,0,1-.87-.36L439,497.61h-8.16l-1.39,3.33a.61.61,0,0,1-.61.41h-.13Zm9.87-5-3.53-8.52-3.53,8.52Z" transform="translate(-103.11 -83.64)"/><path class="cls-1" d="M452.13,486.66h-4.42a.67.67,0,0,1-.48-.19.67.67,0,0,1,0-.94.65.65,0,0,1,.48-.2h10.16a.66.66,0,0,1,.47,1.14.64.64,0,0,1-.47.19h-4.42v14a.65.65,0,0,1-.67.67.66.66,0,0,1-.47-.19.67.67,0,0,1-.19-.48Z" transform="translate(-103.11 -83.64)"/><path class="cls-1" d="M466.55,500.69a.67.67,0,0,1-1.34,0V486a.67.67,0,0,1,1.34,0Z" transform="translate(-103.11 -83.64)"/><path class="cls-1" d="M485.3,485.36a.64.64,0,0,1,.38.35.66.66,0,0,1,0,.5l-5.15,14.7s0,0,0,0v0l-.06.08v0l-.08.09,0,0-.07,0,0,0-.08,0h0l-.07,0h-.28l-.08,0h0l-.09,0,0,0-.07,0,0,0-.08-.09h0l-.06-.08v0l0,0-5.15-14.7a.59.59,0,0,1,0-.5.66.66,0,0,1,.89-.31.61.61,0,0,1,.34.38l4.53,12.9,4.54-12.9a.61.61,0,0,1,.33-.38l.25-.12Z" transform="translate(-103.11 -83.64)"/><path class="cls-1" d="M493.59,501.36a.69.69,0,0,1-.67-.67V486a.62.62,0,0,1,.2-.47.59.59,0,0,1,.47-.2l8.88,0a.62.62,0,0,1,.47.2.64.64,0,0,1,.2.47.66.66,0,0,1-.2.48.64.64,0,0,1-.47.19l-8.21,0v6h6.14a.67.67,0,0,1,0,1.34h-6.14v6h8.21a.67.67,0,0,1,0,1.34Z" transform="translate(-103.11 -83.64)"/><path class="cls-1" d="M199.7,401.15l-6-4.71c-.56-.44-1.59-.14-2.1,0l-22.67,12.77L147.84,359c-.27-.8-.8-.66-1.61-.66h-3.48c-.8,0-1.34-.14-1.74.66l-37.73,91a2.24,2.24,0,0,0,1.74,3.1h7.63a.92.92,0,0,0,.21,0,1.11,1.11,0,0,0,.78-.12l45.27-25.42-4.16-10-30.61,17.42c-.64.36-2.54-.3-2.22-1.59h0l4.41-10.66v-.14l17.55-42.9a.82.82,0,0,1,1.53,0L159.7,414.6l4,10,3.49,9h0l5.69,13,2,5a1.92,1.92,0,0,0,1.68,1.46h7.63a2.22,2.22,0,0,0,1.87-3l-13-30.85,26-14.62A2.24,2.24,0,0,0,199.7,401.15Z" transform="translate(-103.11 -83.64)"/><path class="cls-1" d="M277.18,362.07v2.28a3.89,3.89,0,0,1-3.88,3.88H250.41a1.87,1.87,0,0,0-1.87,1.87v78a3.89,3.89,0,0,1-3.88,3.88h-4.16a3.74,3.74,0,0,1-3.74-3.74V370.09a1.87,1.87,0,0,0-1.87-1.87h-23a3.89,3.89,0,0,1-3.88-3.88v-2a4,4,0,0,1,4-4h61.42A3.76,3.76,0,0,1,277.18,362.07Z" transform="translate(-103.11 -83.64)"/><path class="cls-1" d="M306.74,405.28a47.83,47.83,0,1,1,47.9,47.77A48,48,0,0,1,306.74,405.28Zm83.89,0c0-21-16.59-38.13-36-38.13-19.8,0-36.13,17.13-36.13,38.13s16.33,37.87,36.13,37.87C374,443.15,390.63,426.29,390.63,405.28Z" transform="translate(-103.11 -83.64)"/><path class="cls-1" d="M438.52,440.34a2.2,2.2,0,0,1,0-2.68l4-4.82a2.07,2.07,0,0,1,2.95-.54C446.95,433.38,455.65,443,472,443c6.55,0,22.74-3.21,22.74-16.73,0-11.11-11.91-13.51-24.22-16.73-19.54-4.95-31.44-11.91-31.44-26.63,0-11,8.16-25.69,32.78-25.69,16.32,0,25.42,5.35,30.64,9.5,1.07.8.8,1.88.14,2.95l-3.88,5.22c-.4.8-1.47,1.07-2.54.27a39.1,39.1,0,0,0-24.08-7.89c-12.44,0-21.28,6.29-21.28,15,0,9.1,9.1,13.38,23.41,17,12,2.81,32.25,7.36,32.25,27,0,11.24-8.83,26.76-34.52,26.76C458.86,453.05,447.48,449.31,438.52,440.34Z" transform="translate(-103.11 -83.64)"/><path class="cls-2" d="M423.72,207.73,409.29,193.3a3.38,3.38,0,0,1,0-4.77l10.36-10.36a3.36,3.36,0,0,1,2.35-1q-.53-2.45-1.16-4.87l-65.77,65.77a5.3,5.3,0,0,1-7.48,0l-34.42-34.42a5.3,5.3,0,0,1,0-7.48l77.27-77.27-.59-.6c-.58-.58-1.17-1.15-1.75-1.71l-7.47,7.47a3.32,3.32,0,0,1-4.68,0l-13.81-13.81a3.32,3.32,0,0,1,0-4.68l5-5q-1.91-1.15-3.86-2.23l-9.38,9.38,5.82,5.82h0l13.32,13.32a3.38,3.38,0,0,1,0,4.77L362.73,142a3.38,3.38,0,0,1-4.77,0l-13.32-13.32h0l-21-21a4,4,0,0,1,0-5.61l9.52-9.52,0,0,0,0,4.65-4.65q-3.42-1-6.88-1.7a3.36,3.36,0,0,1-1,2.37L319.67,98.9a3.38,3.38,0,0,1-4.77,0L300.46,84.47a3.28,3.28,0,0,1-.6-.83q-4.46.22-8.87.76a3.29,3.29,0,0,1-.45.55L280.19,95.32a3.38,3.38,0,0,1-4.77,0L269.3,89.2c-1.4.45-2.8.92-4.19,1.43l7.49,7.49a3.38,3.38,0,0,1,0,4.77l-10.36,10.36a3.38,3.38,0,0,1-4.77,0l-12.85-12.85q-1.75,1.05-3.46,2.16l13.5,13.5a3.38,3.38,0,0,1,0,4.77L244.3,131.2a3.38,3.38,0,0,1-4.77,0L225.1,116.77a3.29,3.29,0,0,1-.7-1c-.9.85-1.79,1.7-2.67,2.58l-.54.55a3.29,3.29,0,0,1,1.09.72L236.72,134a3.38,3.38,0,0,1,0,4.77l-10.36,10.36a3.38,3.38,0,0,1-4.77,0l-13.92-13.92q-1.15,1.67-2.24,3.38L218.77,152a3.38,3.38,0,0,1,0,4.77l-10.36,10.36a3.38,3.38,0,0,1-4.77,0l-8.44-8.44c-.54,1.36-1,2.72-1.53,4.1l7.15,7.15a3.38,3.38,0,0,1,0,4.77L190.47,185a3.33,3.33,0,0,1-2.44,1q-.55,4-.83,8a3.34,3.34,0,0,1,2.78.95l14.43,14.43a3.38,3.38,0,0,1,0,4.77l-10.36,10.36a3.38,3.38,0,0,1-4.77,0l-.39-.39q1,5.23,2.4,10.36l14.06-14.06a7.17,7.17,0,0,1,10.11,0l29.35,29.35a7.17,7.17,0,0,1,0,10.11l-23,23a6.87,6.87,0,0,1-2.19,1.47q1,1.07,2.07,2.12l.6.59,9.54-9.54a3.38,3.38,0,0,1,4.77,0l14.43,14.43a3.38,3.38,0,0,1,0,4.77l-7.2,7.2q1.45.89,2.92,1.73l23.4-23.4a5,5,0,0,1,7.06,0l12.15,12.15a5,5,0,0,1,0,7.06L273.9,316.94q2.77.77,5.58,1.41l11.83-11.83a7.27,7.27,0,0,1,10.25,0l14.32,14.32q3.07-.26,6.12-.67a3.36,3.36,0,0,1,1-2.65l10.36-10.36a3.38,3.38,0,0,1,4.77,0l7.34,7.34c1.37-.49,2.74-1,4.1-1.53l-8.62-8.62a3.38,3.38,0,0,1,0-4.77l10.36-10.36a3.38,3.38,0,0,1,4.77,0l13.53,13.53q1.71-1.09,3.38-2.24l-14.1-14.1a3.38,3.38,0,0,1,0-4.77l10.36-10.36a3.38,3.38,0,0,1,4.77,0L388.4,285.7a3.32,3.32,0,0,1,.81,1.37l.64-.63c.91-.91,1.79-1.83,2.66-2.76a3.32,3.32,0,0,1-1.31-.8l-14.43-14.43a3.38,3.38,0,0,1,0-4.77l10.36-10.36a3.38,3.38,0,0,1,4.77,0L405.6,267q1.11-1.71,2.16-3.46l-13-13a3.38,3.38,0,0,1,0-4.77l10.36-10.36a3.38,3.38,0,0,1,4.77,0l7.68,7.68c.51-1.39,1-2.79,1.43-4.19l-6.3-6.3a3.38,3.38,0,0,1,0-4.77L423,217.43a3.33,3.33,0,0,1,.78-.58q.51-4.24.73-8.53A3.32,3.32,0,0,1,423.72,207.73Zm-99.11,23,1-1a4.1,4.1,0,0,1,5.79,0l12.81,12.81a4.1,4.1,0,0,1,0,5.79l-9.34,9.34a4.1,4.1,0,0,1-5.79,0l-12.81-12.81a4.1,4.1,0,0,1,0-5.79l1.51-1.51a.75.75,0,0,1,.8-.18,4.49,4.49,0,0,0,5.82-5.82A.75.75,0,0,1,324.62,230.75Zm-26.89-71.61a3.38,3.38,0,0,1,0,4.77l-10.36,10.36a3.38,3.38,0,0,1-4.77,0l-14.43-14.43a3.38,3.38,0,0,1,0-4.77l10.36-10.36a3.38,3.38,0,0,1,4.77,0Zm-11.62-22,10.36-10.36a3.38,3.38,0,0,1,4.77,0l14.43,14.43a3.38,3.38,0,0,1,0,4.77l-10.36,10.36a3.38,3.38,0,0,1-4.77,0l-14.43-14.43A3.38,3.38,0,0,1,286.11,137.12Zm15.21,61.49a3.38,3.38,0,0,1,0,4.77L291,213.75a3.38,3.38,0,0,1-4.77,0l-14.43-14.43a3.38,3.38,0,0,1,0-4.77l10.36-10.36a3.38,3.38,0,0,1,4.77,0Zm-21.53-21.53a3.38,3.38,0,0,1,0,4.77l-10.36,10.36a3.38,3.38,0,0,1-4.77,0l-14.43-14.43a3.38,3.38,0,0,1,0-4.77l10.36-10.36a3.38,3.38,0,0,1,4.77,0ZM261.84,195a3.38,3.38,0,0,1,0,4.77l-10.36,10.36a3.38,3.38,0,0,1-4.77,0l-14.43-14.43a3.38,3.38,0,0,1,0-4.77l10.36-10.36a3.38,3.38,0,0,1,4.77,0Zm-8,17.46,10.36-10.36a3.38,3.38,0,0,1,4.77,0l14.43,14.43a3.38,3.38,0,0,1,0,4.77L273,231.69a3.38,3.38,0,0,1-4.77,0l-14.43-14.43A3.38,3.38,0,0,1,253.81,212.49Zm18.72,29.12,5.82,5.82-15.13,15.13-5.82-5.82a3.38,3.38,0,0,1,0-4.77l10.36-10.36A3.38,3.38,0,0,1,272.53,241.6Zm2.81-2.81a3.38,3.38,0,0,1,0-4.77l10.36-10.36a3.38,3.38,0,0,1,4.77,0l14.43,14.43a3.38,3.38,0,0,1,0,4.77l-10.36,10.36a3.38,3.38,0,0,1-4.77,0ZM298,256.72l10.36-10.36a3.38,3.38,0,0,1,4.77,0l14.43,14.43a3.38,3.38,0,0,1,0,4.77l-10.36,10.36a3.38,3.38,0,0,1-4.77,0L298,261.49A3.38,3.38,0,0,1,298,256.72Zm24.35-37a4,4,0,0,1,0,5.7L320.8,227a.69.69,0,0,1-.74.17,4.49,4.49,0,0,0-5.84,5.84.69.69,0,0,1-.17.74L313,234.82a4,4,0,0,1-5.7,0l-12.9-12.9a4,4,0,0,1,0-5.7l9.43-9.43a4,4,0,0,1,5.7,0Zm-3.13-34.24L308.9,195.8a3.38,3.38,0,0,1-4.77,0l-14.43-14.43a3.38,3.38,0,0,1,0-4.77l10.36-10.36a3.38,3.38,0,0,1,4.77,0l14.43,14.43A3.38,3.38,0,0,1,319.26,185.44ZM337.2,167.5l-10.36,10.36a3.38,3.38,0,0,1-4.77,0l-14.43-14.43a3.38,3.38,0,0,1,0-4.77L318,148.29a3.38,3.38,0,0,1,4.77,0l14.43,14.43A3.38,3.38,0,0,1,337.2,167.5Zm3.51-37.15,14.43,14.43a3.38,3.38,0,0,1,0,4.77l-10.36,10.36a3.38,3.38,0,0,1-4.77,0l-14.43-14.43a3.38,3.38,0,0,1,0-4.77l10.36-10.36A3.38,3.38,0,0,1,340.71,130.35Zm-21.53-21.53,14.43,14.43a3.38,3.38,0,0,1,0,4.77l-10.36,10.36a3.38,3.38,0,0,1-4.77,0l-14.43-14.43a3.38,3.38,0,0,1,0-4.77l10.36-10.36A3.38,3.38,0,0,1,319.18,108.82ZM282.52,97.64l10.36-10.36a3.38,3.38,0,0,1,4.77,0l14.43,14.43a3.38,3.38,0,0,1,0,4.77l-10.36,10.36a3.38,3.38,0,0,1-4.77,0l-14.43-14.43A3.38,3.38,0,0,1,282.52,97.64Zm-17.94,17.94,10.36-10.36a3.38,3.38,0,0,1,4.77,0l14.43,14.43a3.38,3.38,0,0,1,0,4.77l-10.36,10.36a3.38,3.38,0,0,1-4.77,0l-14.43-14.43A3.38,3.38,0,0,1,264.57,115.59Zm-17.94,17.94L257,123.17a3.38,3.38,0,0,1,4.77,0l14.43,14.43a3.38,3.38,0,0,1,0,4.77l-10.36,10.36a3.38,3.38,0,0,1-4.77,0L246.63,138.3A3.38,3.38,0,0,1,246.63,133.53Zm-17.94,17.94L239,141.12a3.38,3.38,0,0,1,4.77,0l14.43,14.43a3.38,3.38,0,0,1,0,4.77l-10.36,10.36a3.38,3.38,0,0,1-4.77,0l-14.43-14.43A3.38,3.38,0,0,1,228.69,151.48Zm-17.94,17.94,10.36-10.36a3.38,3.38,0,0,1,4.77,0l14.43,14.43a3.38,3.38,0,0,1,0,4.77l-10.36,10.36a3.38,3.38,0,0,1-4.77,0l-14.43-14.43A3.38,3.38,0,0,1,210.74,169.42Zm-3.51,37.15L192.8,192.14a3.38,3.38,0,0,1,0-4.77L203.16,177a3.38,3.38,0,0,1,4.77,0l14.43,14.43a3.38,3.38,0,0,1,0,4.77L212,206.57A3.38,3.38,0,0,1,207.23,206.57Zm21.53,21.53-14.43-14.43a3.38,3.38,0,0,1,0-4.77l10.36-10.36a3.38,3.38,0,0,1,4.77,0L243.89,213a3.38,3.38,0,0,1,0,4.77L233.54,228.1A3.38,3.38,0,0,1,228.76,228.1Zm7.1,7.1a3.38,3.38,0,0,1,0-4.77l10.36-10.36a3.38,3.38,0,0,1,4.77,0l14.43,14.43a3.38,3.38,0,0,1,0,4.77l-10.36,10.36a3.38,3.38,0,0,1-4.77,0ZM269,278.75l-10.36,10.36a3.38,3.38,0,0,1-4.77,0l-14.43-14.43a3.38,3.38,0,0,1,0-4.77l10.36-10.36a3.38,3.38,0,0,1,4.77,0L269,274A3.38,3.38,0,0,1,269,278.75Zm7.58-7.58a3.38,3.38,0,0,1-4.77,0L266,265.34l15.13-15.13L287,256a3.38,3.38,0,0,1,0,4.77Zm16.76,21.53-14.43-14.43a3.38,3.38,0,0,1,0-4.77l10.36-10.36a3.38,3.38,0,0,1,4.77,0l14.43,14.43a3.38,3.38,0,0,1,0,4.77L298.13,292.7A3.38,3.38,0,0,1,293.36,292.7ZM331.19,305,320.83,315.4a3.38,3.38,0,0,1-4.77,0L301.63,301a3.38,3.38,0,0,1,0-4.77L312,285.83a3.38,3.38,0,0,1,4.77,0l14.43,14.43A3.38,3.38,0,0,1,331.19,305Zm17.94-17.94-10.36,10.36a3.38,3.38,0,0,1-4.77,0L319.57,283a3.38,3.38,0,0,1,0-4.77l10.36-10.36a3.38,3.38,0,0,1,4.77,0l14.43,14.43A3.38,3.38,0,0,1,349.13,287.09Zm17.94-17.94-10.36,10.36a3.38,3.38,0,0,1-4.77,0l-14.43-14.43a3.38,3.38,0,0,1,0-4.77l10.36-10.36a3.38,3.38,0,0,1,4.77,0l14.43,14.43A3.38,3.38,0,0,1,367.08,269.15ZM385,251.21l-10.36,10.36a3.38,3.38,0,0,1-4.77,0l-14.43-14.43a3.38,3.38,0,0,1,0-4.77L365.82,232a3.38,3.38,0,0,1,4.77,0L385,246.43A3.38,3.38,0,0,1,385,251.21ZM403,233.26l-10.36,10.36a3.38,3.38,0,0,1-4.77,0L373.4,229.19a3.38,3.38,0,0,1,0-4.77l10.36-10.36a3.38,3.38,0,0,1,4.77,0L403,228.49A3.38,3.38,0,0,1,403,233.26Zm17.94-17.94-10.36,10.36a3.38,3.38,0,0,1-4.77,0l-14.43-14.43a3.38,3.38,0,0,1,0-4.77l10.36-10.36a3.38,3.38,0,0,1,4.77,0l14.43,14.43A3.38,3.38,0,0,1,420.91,215.32Z" transform="translate(-103.11 -83.64)"/></svg>