<svg id="Layer_1" data-name="Layer 1" xmlns="http://www.w3.org/2000/svg" viewBox="0 0 442.19 442.18"><defs><style>.cls-1{fill:#333;}.cls-2{fill:#fff;}</style></defs><title>atos-circle-cert</title><circle class="cls-1" cx="221.09" cy="221.09" r="221.09"/><path class="cls-2" d="M332.17,375.12a.38.38,0,0,1-.22-.22.39.39,0,0,1,0-.32l1-2.35h0l2.85-6.87,0-.08,0,0,0,0,0,0,0,0a.37.37,0,0,1,.15-.06h.16a.37.37,0,0,1,.16.06l0,0,0,0,0,0,0,0,0,.08,2.85,6.87h0l1,2.35a.39.39,0,0,1,0,.32.43.43,0,0,1-.39.26.39.39,0,0,1-.39-.26l-.87-2.1h-5.13l-.87,2.1a.39.39,0,0,1-.39.26h-.08Zm6.21-3.16-2.22-5.36L333.94,372Z" transform="translate(-88.61 -90.98)"/><path class="cls-2" d="M351.2,365.09a.41.41,0,0,1,.29.12.4.4,0,0,1,.12.29v6.19a3.45,3.45,0,0,1-6.9,0V365.5a.41.41,0,0,1,.42-.42.39.39,0,0,1,.29.12.4.4,0,0,1,.12.29v6.19a2.63,2.63,0,0,0,5.26,0V365.5a.4.4,0,0,1,.12-.29A.39.39,0,0,1,351.2,365.09Z" transform="translate(-88.61 -90.98)"/><path class="cls-2" d="M359.12,365.91h-2.78a.42.42,0,0,1-.3-.12.43.43,0,0,1,0-.59.42.42,0,0,1,.3-.13h6.39a.42.42,0,0,1,.3.72.4.4,0,0,1-.3.12H360v8.82a.41.41,0,0,1-.42.42.42.42,0,0,1-.29-.12.42.42,0,0,1-.12-.3Z" transform="translate(-88.61 -90.98)"/><path class="cls-2" d="M371.7,375.15a5,5,0,1,1,3.56-1.48A4.85,4.85,0,0,1,371.7,375.15Zm0-9.25a4.23,4.23,0,1,0,3,1.24A4,4,0,0,0,371.7,365.91Z" transform="translate(-88.61 -90.98)"/><path class="cls-2" d="M389,375h0l-6.43-8.29v8a.42.42,0,0,1-.84,0v-9.26a.42.42,0,0,1,.75-.26l6.44,8.29v-8a.4.4,0,0,1,.12-.29.4.4,0,0,1,.29-.13.41.41,0,0,1,.3.13.4.4,0,0,1,.12.29v9.29a.13.13,0,0,1,0,0,.11.11,0,0,1,0,0v.08l0,0,0,0,0,0,0,0h-.06l0,0h-.3l-.06,0,0,0,0,0,0,0,0,0Z" transform="translate(-88.61 -90.98)"/><path class="cls-2" d="M399.38,375.15a5,5,0,1,1,3.56-1.48A4.85,4.85,0,0,1,399.38,375.15Zm0-9.25a4.23,4.23,0,1,0,3,1.24A4,4,0,0,0,399.38,365.91Z" transform="translate(-88.61 -90.98)"/><path class="cls-2" d="M410.24,374.73a.43.43,0,0,1-.12.3.42.42,0,0,1-.29.12.41.41,0,0,1-.42-.42v-9.22a.38.38,0,0,1,.31-.4.38.38,0,0,1,.47.19l4.19,6.93,4.19-6.93a.38.38,0,0,1,.47-.19.38.38,0,0,1,.31.4v9.22a.41.41,0,0,1-.13.3.4.4,0,0,1-.29.12.42.42,0,0,1-.29-.12.43.43,0,0,1-.12-.3V367l-3.78,6.24h0l0,0,0,0,0,0,0,0h0l0,0h-.31l0,0h0l0,0,0,0,0,0,0,0h0L410.24,367Z" transform="translate(-88.61 -90.98)"/><path class="cls-2" d="M429.15,375.15a5,5,0,1,1,3.56-1.48A4.85,4.85,0,0,1,429.15,375.15Zm0-9.25a4.23,4.23,0,1,0,3,1.24A4,4,0,0,0,429.15,365.91Z" transform="translate(-88.61 -90.98)"/><path class="cls-2" d="M445.47,365.09a.41.41,0,0,1,.29.12.4.4,0,0,1,.12.29v6.19a3.45,3.45,0,0,1-6.9,0V365.5a.41.41,0,0,1,.42-.42.39.39,0,0,1,.29.12.4.4,0,0,1,.12.29v6.19a2.63,2.63,0,0,0,5.26,0V365.5a.4.4,0,0,1,.12-.29A.39.39,0,0,1,445.47,365.09Z" transform="translate(-88.61 -90.98)"/><path class="cls-2" d="M454.05,370.53a3.39,3.39,0,0,1-2.54-.94,2.24,2.24,0,0,1-.65-1.69,2.8,2.8,0,0,1,1-2,3.09,3.09,0,0,1,2.16-.82,4.15,4.15,0,0,1,2,.46,2.46,2.46,0,0,1,1.32,1.6.41.41,0,0,1-.3.51.37.37,0,0,1-.32,0,.39.39,0,0,1-.19-.25,1.69,1.69,0,0,0-1-1.11,3.41,3.41,0,0,0-1.51-.32,2.3,2.3,0,0,0-1.58.59,2,2,0,0,0-.7,1.45,1.41,1.41,0,0,0,.42,1.08,2.62,2.62,0,0,0,1.95.67.42.42,0,0,1,.42.43.42.42,0,0,1-.42.41Zm-1.86,4.17a2.48,2.48,0,0,1-1.32-1.6.42.42,0,0,1,.62-.46.41.41,0,0,1,.19.25,1.71,1.71,0,0,0,1,1.12,3.46,3.46,0,0,0,1.51.32,2.29,2.29,0,0,0,1.58-.59,2,2,0,0,0,.7-1.44,1.42,1.42,0,0,0-.42-1.08,2.61,2.61,0,0,0-1.95-.67.39.39,0,0,1-.3-.13.41.41,0,0,1,0-.59.4.4,0,0,1,.29-.12,3.41,3.41,0,0,1,2.54.94,2.19,2.19,0,0,1,.64,1.69,2.78,2.78,0,0,1-1,2,3.09,3.09,0,0,1-2.16.82A4.21,4.21,0,0,1,452.2,374.69Z" transform="translate(-88.61 -90.98)"/><path class="cls-2" d="M301.78,383.18H299a.42.42,0,0,1-.3-.12.42.42,0,0,1,0-.59.41.41,0,0,1,.3-.13h6.39a.42.42,0,0,1,.29.72.4.4,0,0,1-.29.12h-2.78V392a.41.41,0,0,1-.42.42.42.42,0,0,1-.29-.12.43.43,0,0,1-.12-.3Z" transform="translate(-88.61 -90.98)"/><path class="cls-2" d="M313.71,382.36a3,3,0,0,1,2.08.79,2.56,2.56,0,0,1,.15,3.68,2.87,2.87,0,0,1-1.74.91l2,4.08a.39.39,0,0,1,0,.32.41.41,0,0,1-.21.24.4.4,0,0,1-.18,0,.38.38,0,0,1-.37-.23l-2.17-4.41h-2.35v4.16a.42.42,0,0,1-.42.42.41.41,0,0,1-.42-.42v-9.17a.4.4,0,0,1,.12-.3.42.42,0,0,1,.29-.12Zm2.11,2.71a1.71,1.71,0,0,0-.62-1.33,2.15,2.15,0,0,0-1.49-.55h-2.76V387h2.81a2.12,2.12,0,0,0,1.46-.56A1.71,1.71,0,0,0,315.82,385.08Z" transform="translate(-88.61 -90.98)"/><path class="cls-2" d="M321.14,392.4a.38.38,0,0,1-.22-.22.39.39,0,0,1,0-.32l1-2.35h0l2.85-6.87,0-.08,0,0,0,0,0,0,0,0a.37.37,0,0,1,.15-.06h.16a.38.38,0,0,1,.15.06l0,0,0,0,0,0,0,0,0,.08,2.85,6.87h0l1,2.35a.39.39,0,0,1,0,.32.38.38,0,0,1-.22.22.41.41,0,0,1-.55-.22l-.87-2.1h-5.13l-.87,2.1a.39.39,0,0,1-.39.26h-.08Zm6.21-3.16-2.22-5.36-2.22,5.36Z" transform="translate(-88.61 -90.98)"/><path class="cls-2" d="M341.06,392.28h0L334.62,384v8a.42.42,0,0,1-.84,0v-9.26a.42.42,0,0,1,.75-.26l6.44,8.29v-8a.4.4,0,0,1,.12-.29.4.4,0,0,1,.29-.13.41.41,0,0,1,.3.13.4.4,0,0,1,.12.29V392a.13.13,0,0,1,0,0,.11.11,0,0,1,0,0v.08l0,0,0,0,0,0,0,0h-.06l0,0h-.3l-.06,0,0,0,0,0,0,0,0,0Z" transform="translate(-88.61 -90.98)"/><path class="cls-2" d="M349.92,387.8a3.39,3.39,0,0,1-2.54-.94,2.24,2.24,0,0,1-.65-1.69,2.8,2.8,0,0,1,1-2,3.09,3.09,0,0,1,2.16-.82,4.15,4.15,0,0,1,2,.46,2.46,2.46,0,0,1,1.32,1.6.41.41,0,0,1-.3.51.37.37,0,0,1-.32,0,.39.39,0,0,1-.19-.25,1.69,1.69,0,0,0-1-1.11,3.41,3.41,0,0,0-1.51-.32,2.3,2.3,0,0,0-1.58.59,2,2,0,0,0-.7,1.45,1.41,1.41,0,0,0,.42,1.08,2.62,2.62,0,0,0,1.95.67.42.42,0,0,1,.42.43.42.42,0,0,1-.42.41ZM348.07,392a2.48,2.48,0,0,1-1.32-1.6.42.42,0,0,1,.62-.46.41.41,0,0,1,.19.25,1.71,1.71,0,0,0,1,1.12,3.46,3.46,0,0,0,1.51.32,2.29,2.29,0,0,0,1.58-.59,2,2,0,0,0,.7-1.44,1.42,1.42,0,0,0-.42-1.08,2.61,2.61,0,0,0-1.95-.67.39.39,0,0,1-.3-.13.41.41,0,0,1,0-.59A.4.4,0,0,1,350,387a3.41,3.41,0,0,1,2.54.94,2.19,2.19,0,0,1,.64,1.69,2.78,2.78,0,0,1-1,2,3.09,3.09,0,0,1-2.16.82A4.21,4.21,0,0,1,348.07,392Z" transform="translate(-88.61 -90.98)"/><path class="cls-2" d="M361.81,382.34a3,3,0,0,1,2.1.81,2.59,2.59,0,0,1,0,3.82,3,3,0,0,1-2,.85h-3V392a.42.42,0,0,1-.84,0v-9.25a.43.43,0,0,1,.42-.42Zm.06,4.64a2.18,2.18,0,0,0,1.46-.57,1.75,1.75,0,0,0,0-2.67,2.19,2.19,0,0,0-1.5-.56H359V387Z" transform="translate(-88.61 -90.98)"/><path class="cls-2" d="M373.86,392.43a5,5,0,1,1,3.56-1.48A4.85,4.85,0,0,1,373.86,392.43Zm0-9.25a4.23,4.23,0,1,0,3,1.24A4,4,0,0,0,373.86,383.18Z" transform="translate(-88.61 -90.98)"/><path class="cls-2" d="M387.47,382.36a3,3,0,0,1,2.08.79,2.56,2.56,0,0,1,.15,3.68,2.87,2.87,0,0,1-1.74.91l2,4.08a.39.39,0,0,1,0,.32.41.41,0,0,1-.21.24.4.4,0,0,1-.18,0,.38.38,0,0,1-.37-.23l-2.17-4.41H384.7v4.16a.42.42,0,0,1-.42.42.41.41,0,0,1-.42-.42v-9.17a.4.4,0,0,1,.12-.3.42.42,0,0,1,.29-.12Zm2.11,2.71a1.71,1.71,0,0,0-.62-1.33,2.15,2.15,0,0,0-1.49-.55H384.7V387h2.81a2.12,2.12,0,0,0,1.46-.56A1.71,1.71,0,0,0,389.57,385.08Z" transform="translate(-88.61 -90.98)"/><path class="cls-2" d="M397.45,383.18h-2.78a.42.42,0,0,1-.3-.12.43.43,0,0,1,0-.59.42.42,0,0,1,.3-.13h6.39a.42.42,0,0,1,.3.72.4.4,0,0,1-.3.12h-2.78V392a.41.41,0,0,1-.42.42.42.42,0,0,1-.29-.12.42.42,0,0,1-.12-.3Z" transform="translate(-88.61 -90.98)"/><path class="cls-2" d="M405.29,392.4a.38.38,0,0,1-.22-.22.39.39,0,0,1,0-.32l1-2.35h0l2.85-6.87,0-.08,0,0,0,0,0,0,0,0a.37.37,0,0,1,.15-.06h.16a.38.38,0,0,1,.15.06l0,0,0,0,0,0,0,0,0,.08,2.85,6.87h0l1,2.35a.39.39,0,0,1,0,.32.38.38,0,0,1-.22.22.41.41,0,0,1-.55-.22l-.87-2.1h-5.13l-.87,2.1a.39.39,0,0,1-.39.26h-.08Zm6.21-3.16-2.22-5.36-2.22,5.36Z" transform="translate(-88.61 -90.98)"/><path class="cls-2" d="M420.12,383.18h-2.78a.42.42,0,0,1-.3-.12.43.43,0,0,1,0-.59.42.42,0,0,1,.3-.13h6.39a.42.42,0,0,1,.3.72.4.4,0,0,1-.3.12H421V392a.41.41,0,0,1-.42.42.42.42,0,0,1-.29-.12.42.42,0,0,1-.12-.3Z" transform="translate(-88.61 -90.98)"/><path class="cls-2" d="M429.18,392a.42.42,0,0,1-.84,0V382.8a.42.42,0,0,1,.84,0Z" transform="translate(-88.61 -90.98)"/><path class="cls-2" d="M439,392.43a5,5,0,1,1,3.56-1.48A4.85,4.85,0,0,1,439,392.43Zm0-9.25a4.23,4.23,0,1,0,3,1.24A4,4,0,0,0,439,383.18Z" transform="translate(-88.61 -90.98)"/><path class="cls-2" d="M456.3,392.28h0L449.86,384v8a.42.42,0,0,1-.84,0v-9.26a.42.42,0,0,1,.75-.26l6.44,8.29v-8a.4.4,0,0,1,.12-.29.4.4,0,0,1,.29-.13.41.41,0,0,1,.3.13.4.4,0,0,1,.12.29V392a.13.13,0,0,1,0,0,.11.11,0,0,1,0,0v.08l0,0,0,0,0,0,0,0h-.06l0,0h-.3l-.06,0,0,0,0,0,0,0,0,0Z" transform="translate(-88.61 -90.98)"/><path class="cls-2" d="M416.95,409.71a5,5,0,1,1,3.56-1.48A4.86,4.86,0,0,1,416.95,409.71Zm0-9.25a4.23,4.23,0,1,0,3,1.24A4,4,0,0,0,416.95,400.46Z" transform="translate(-88.61 -90.98)"/><path class="cls-2" d="M430.71,399.62a3,3,0,0,1,2.1.81,2.59,2.59,0,0,1,0,3.82,3,3,0,0,1-2,.85h-3v4.19a.42.42,0,0,1-.84,0V400a.43.43,0,0,1,.42-.42Zm.06,4.64a2.18,2.18,0,0,0,1.46-.57,1.75,1.75,0,0,0,0-2.67,2.19,2.19,0,0,0-1.5-.56h-2.78v3.8Z" transform="translate(-88.61 -90.98)"/><path class="cls-2" d="M438.78,409.71a.43.43,0,0,1-.42-.42V400a.39.39,0,0,1,.13-.29.38.38,0,0,1,.3-.13h5.58a.39.39,0,0,1,.3.13.41.41,0,0,1,.13.3.41.41,0,0,1-.13.3.4.4,0,0,1-.3.12H439.2v3.78h3.86a.42.42,0,0,1,0,.84H439.2v3.78h5.16a.42.42,0,0,1,0,.84Z" transform="translate(-88.61 -90.98)"/><path class="cls-2" d="M456.26,409.56h0l-6.43-8.29v8a.42.42,0,0,1-.84,0V400a.42.42,0,0,1,.75-.26l6.44,8.29v-8a.4.4,0,0,1,.12-.29.4.4,0,0,1,.29-.13.41.41,0,0,1,.3.13.4.4,0,0,1,.12.29v9.29a.13.13,0,0,1,0,0,.11.11,0,0,1,0,0v.08l0,0,0,0,0,0,0,0h-.06l0,0h-.3l-.06,0,0,0,0,0,0,0,0,0Z" transform="translate(-88.61 -90.98)"/><path class="cls-2" d="M357.73,422.36a3.39,3.39,0,0,1-2.54-.94,2.24,2.24,0,0,1-.65-1.69,2.8,2.8,0,0,1,1-2,3.09,3.09,0,0,1,2.16-.82,4.15,4.15,0,0,1,2,.46A2.46,2.46,0,0,1,361,419a.42.42,0,0,1,0,.32.41.41,0,0,1-.26.19.37.37,0,0,1-.32,0,.39.39,0,0,1-.19-.25,1.69,1.69,0,0,0-1-1.11,3.41,3.41,0,0,0-1.51-.32,2.29,2.29,0,0,0-1.58.59,2,2,0,0,0-.7,1.45,1.42,1.42,0,0,0,.42,1.08,2.62,2.62,0,0,0,1.95.67.42.42,0,0,1,.42.43.42.42,0,0,1-.42.41Zm-1.86,4.17a2.48,2.48,0,0,1-1.32-1.6.41.41,0,0,1,.3-.51.42.42,0,0,1,.32,0,.41.41,0,0,1,.19.25,1.71,1.71,0,0,0,1,1.12,3.46,3.46,0,0,0,1.51.32,2.29,2.29,0,0,0,1.58-.59,2,2,0,0,0,.7-1.44,1.42,1.42,0,0,0-.42-1.08,2.61,2.61,0,0,0-1.95-.67.39.39,0,0,1-.29-.13.41.41,0,0,1-.12-.29.42.42,0,0,1,.13-.3.4.4,0,0,1,.29-.12,3.41,3.41,0,0,1,2.55.94,2.2,2.2,0,0,1,.64,1.69,2.78,2.78,0,0,1-1,2,3.09,3.09,0,0,1-2.16.82A4.21,4.21,0,0,1,355.87,426.53Z" transform="translate(-88.61 -90.98)"/><path class="cls-2" d="M368.06,417.74h-2.78a.42.42,0,0,1-.3-.12.43.43,0,0,1,0-.59.42.42,0,0,1,.3-.13h6.39a.42.42,0,0,1,.3.72.4.4,0,0,1-.3.12h-2.78v8.82a.41.41,0,0,1-.42.42.42.42,0,0,1-.29-.12.42.42,0,0,1-.12-.3Z" transform="translate(-88.61 -90.98)"/><path class="cls-2" d="M375.9,427a.38.38,0,0,1-.22-.22.39.39,0,0,1,0-.32l1-2.35h0l2.85-6.87,0-.08,0,0,0,0,0,0,0,0a.37.37,0,0,1,.15-.06H380a.38.38,0,0,1,.15.06l0,0,0,0,0,0,0,0,0,.08,2.85,6.87h0l1,2.35a.39.39,0,0,1,0,.32.38.38,0,0,1-.22.22.41.41,0,0,1-.55-.22l-.87-2.1h-5.13l-.87,2.1a.39.39,0,0,1-.39.26H376Zm6.21-3.16-2.22-5.36-2.22,5.36Z" transform="translate(-88.61 -90.98)"/><path class="cls-2" d="M395.82,426.84h0l-6.43-8.29v8a.42.42,0,0,1-.84,0v-9.26a.42.42,0,0,1,.75-.26l6.44,8.29v-8a.4.4,0,0,1,.12-.29.4.4,0,0,1,.29-.13.41.41,0,0,1,.3.13.4.4,0,0,1,.12.29v9.29a.13.13,0,0,1,0,0,.11.11,0,0,1,0,0v.08l0,0,0,0,0,0,0,0h-.06l0,0H396l-.06,0,0,0,0,0,0,0,0,0Z" transform="translate(-88.61 -90.98)"/><path class="cls-2" d="M402.26,427a.41.41,0,0,1-.3-.12.42.42,0,0,1-.13-.3v-9.25a.41.41,0,0,1,.13-.3.39.39,0,0,1,.3-.13h2.34a5,5,0,0,1,0,10.07l-2.33,0Zm.42-.85,1.91,0a4.18,4.18,0,1,0,0-8.37h-1.92Z" transform="translate(-88.61 -90.98)"/><path class="cls-2" d="M414.32,427a.38.38,0,0,1-.22-.22.39.39,0,0,1,0-.32l1-2.35h0l2.85-6.87,0-.08,0,0,0,0,0,0,0,0a.37.37,0,0,1,.15-.06h.16a.38.38,0,0,1,.15.06l0,0,0,0,0,0,0,0,0,.08,2.85,6.87h0l1,2.35a.39.39,0,0,1,0,.32.38.38,0,0,1-.22.22.41.41,0,0,1-.55-.22l-.87-2.1h-5.13l-.87,2.1a.39.39,0,0,1-.39.26h-.08Zm6.21-3.16-2.22-5.36-2.22,5.36Z" transform="translate(-88.61 -90.98)"/><path class="cls-2" d="M430.55,416.92a3,3,0,0,1,2.08.79,2.56,2.56,0,0,1,.15,3.68,2.87,2.87,0,0,1-1.74.91l2,4.08a.39.39,0,0,1,0,.32.41.41,0,0,1-.21.24.4.4,0,0,1-.18,0,.38.38,0,0,1-.37-.23l-2.17-4.41h-2.35v4.16a.42.42,0,0,1-.42.42.41.41,0,0,1-.42-.42v-9.17a.4.4,0,0,1,.12-.3.42.42,0,0,1,.29-.12Zm2.11,2.71a1.71,1.71,0,0,0-.62-1.33,2.15,2.15,0,0,0-1.49-.55h-2.76v3.76h2.81a2.12,2.12,0,0,0,1.46-.56A1.71,1.71,0,0,0,432.66,419.63Z" transform="translate(-88.61 -90.98)"/><path class="cls-2" d="M438.78,427a.41.41,0,0,1-.3-.12.42.42,0,0,1-.13-.3v-9.25a.41.41,0,0,1,.13-.3.39.39,0,0,1,.3-.13h2.34a5,5,0,0,1,0,10.07l-2.33,0Zm.42-.85,1.91,0a4.18,4.18,0,1,0,0-8.37H439.2Z" transform="translate(-88.61 -90.98)"/><path class="cls-2" d="M454.05,422.36a3.39,3.39,0,0,1-2.54-.94,2.24,2.24,0,0,1-.65-1.69,2.8,2.8,0,0,1,1-2,3.09,3.09,0,0,1,2.16-.82,4.15,4.15,0,0,1,2,.46,2.46,2.46,0,0,1,1.32,1.6.41.41,0,0,1-.3.51.37.37,0,0,1-.32,0,.39.39,0,0,1-.19-.25,1.69,1.69,0,0,0-1-1.11,3.41,3.41,0,0,0-1.51-.32,2.3,2.3,0,0,0-1.58.59,2,2,0,0,0-.7,1.45,1.41,1.41,0,0,0,.42,1.08,2.62,2.62,0,0,0,1.95.67.42.42,0,0,1,.42.43.42.42,0,0,1-.42.41Zm-1.86,4.17a2.48,2.48,0,0,1-1.32-1.6.42.42,0,0,1,.62-.46.41.41,0,0,1,.19.25,1.71,1.71,0,0,0,1,1.12,3.46,3.46,0,0,0,1.51.32,2.29,2.29,0,0,0,1.58-.59,2,2,0,0,0,.7-1.44A1.42,1.42,0,0,0,456,423a2.61,2.61,0,0,0-1.95-.67.39.39,0,0,1-.3-.13.41.41,0,0,1,0-.59.4.4,0,0,1,.29-.12,3.41,3.41,0,0,1,2.54.94,2.19,2.19,0,0,1,.64,1.69,2.78,2.78,0,0,1-1,2,3.09,3.09,0,0,1-2.16.82A4.21,4.21,0,0,1,452.2,426.53Z" transform="translate(-88.61 -90.98)"/><path class="cls-2" d="M230.87,300.63l-4.51-3.54c-.42-.33-1.19-.1-1.58,0l-17,9.6L191.89,269c-.2-.6-.6-.5-1.21-.5h-2.61c-.6,0-1-.11-1.31.5l-28.36,68.39a1.69,1.69,0,0,0,1.31,2.33h5.73l.15,0a.84.84,0,0,0,.58-.09l34-19.1-3.12-7.53-23,13.09c-.48.27-1.91-.23-1.67-1.2l3.31-8v-.11l13.19-32.24a.62.62,0,0,1,1.15,0l10.74,26.26,3,7.5,2.63,6.77h0l4.28,9.8,1.5,3.77a1.45,1.45,0,0,0,1.26,1.1h5.73a1.67,1.67,0,0,0,1.41-2.23l-9.73-23.18,19.54-11A1.69,1.69,0,0,0,230.87,300.63Z" transform="translate(-88.61 -90.98)"/><path class="cls-2" d="M288.49,271.26V273a2.92,2.92,0,0,1-2.91,2.91h-17.2a1.41,1.41,0,0,0-1.41,1.41v58.63a2.92,2.92,0,0,1-2.91,2.91h-3.12a2.81,2.81,0,0,1-2.81-2.81V277.29a1.41,1.41,0,0,0-1.41-1.41h-17.3a2.92,2.92,0,0,1-2.91-2.91v-1.51a3,3,0,0,1,3-3h46.16A2.82,2.82,0,0,1,288.49,271.26Z" transform="translate(-88.61 -90.98)"/><path class="cls-2" d="M310.71,303.74a35.95,35.95,0,1,1,36,35.9A36,36,0,0,1,310.71,303.74Zm63,0c0-15.79-12.47-28.66-27-28.66-14.88,0-27.15,12.87-27.15,28.66s12.27,28.46,27.15,28.46C361.28,332.19,373.75,319.52,373.75,303.74Z" transform="translate(-88.61 -90.98)"/><path class="cls-2" d="M409.74,330.08a1.66,1.66,0,0,1,0-2l3-3.62A1.56,1.56,0,0,1,415,324a28.53,28.53,0,0,0,19.91,8c4.93,0,17.09-2.41,17.09-12.57,0-8.35-8.95-10.16-18.2-12.57-14.68-3.72-23.63-8.95-23.63-20,0-8.24,6.13-19.31,24.64-19.31,12.27,0,19.1,4,23,7.14.81.6.6,1.41.1,2.21L455,280.91c-.3.6-1.11.8-1.91.2a29.38,29.38,0,0,0-18.1-5.93c-9.35,0-16,4.73-16,11.26,0,6.84,6.84,10.05,17.6,12.77,9.05,2.11,24.23,5.53,24.23,20.31,0,8.45-6.64,20.11-25.94,20.11C425,339.63,416.48,336.82,409.74,330.08Z" transform="translate(-88.61 -90.98)"/></svg>